<?xml version="1.0" standalone="no"?>
<!DOCTYPE svg PUBLIC "-//W3C//DTD SVG 20010904//EN"
 "http://www.w3.org/TR/2001/REC-SVG-20010904/DTD/svg10.dtd">
<svg version="1.0" xmlns="http://www.w3.org/2000/svg"
 width="512.000000pt" height="512.000000pt" viewBox="0 0 512.000000 512.000000"
 preserveAspectRatio="xMidYMid meet">

<g transform="translate(0.000000,512.000000) scale(0.100000,-0.100000)"
fill="#000000" stroke="none">
<path d="M3569 5092 c-80 -41 -113 -94 -117 -185 -4 -92 22 -148 90 -192 l47
-30 0 -228 1 -227 -52 26 c-29 15 -98 52 -153 84 -159 92 -241 130 -365 170
-160 53 -285 72 -460 72 -300 0 -515 -63 -830 -245 -228 -131 -460 -230 -684
-291 -189 -52 -186 -45 -186 -387 l0 -209 -208 0 -208 0 -34 52 c-50 75 -103
101 -197 96 -91 -4 -144 -37 -185 -117 -37 -71 -37 -131 0 -202 41 -80 94
-113 185 -117 92 -4 148 22 192 90 l30 47 213 0 212 1 0 -215 0 -215 -92 0
-93 1 -27 44 c-40 66 -96 99 -178 103 -53 3 -75 0 -106 -16 -59 -30 -103 -80
-119 -136 -19 -62 -19 -70 0 -132 27 -93 112 -154 213 -154 76 0 135 30 182
93 l35 47 91 0 90 0 12 -227 c7 -152 18 -261 32 -328 42 -202 127 -411 228
-566 63 -97 99 -113 147 -64 35 34 31 60 -22 145 -106 171 -181 365 -214 560
-18 108 -19 160 -17 879 l3 763 113 33 c215 62 496 188 708 316 382 230 828
266 1232 100 39 -16 147 -73 241 -125 246 -140 541 -265 741 -314 l35 -8 5
-350 c4 -257 8 -355 18 -371 15 -28 56 -39 91 -27 48 17 52 53 49 444 -3 309
-5 359 -20 385 -21 39 -38 47 -175 84 -61 17 -157 47 -212 68 l-101 37 1 265
0 266 47 30 c68 44 94 100 90 192 -4 92 -38 145 -117 186 -73 36 -131 36 -202
-1z m149 -142 c47 -44 15 -130 -48 -130 -38 0 -70 34 -70 75 0 41 32 75 70 75
14 0 36 -9 48 -20z m-3438 -1522 c43 -47 10 -118 -55 -118 -41 0 -75 32 -75
70 0 63 86 95 130 48z m230 -578 c45 -45 11 -120 -54 -120 -37 0 -76 36 -76
70 0 10 9 29 21 44 26 33 79 36 109 6z"/>
<path d="M2390 4273 c-173 -28 -386 -109 -468 -178 -50 -42 -41 -103 18 -123
27 -10 39 -7 97 24 185 96 332 134 523 134 224 0 349 -38 615 -189 185 -104
362 -188 523 -247 l102 -38 0 -642 c0 -591 -2 -651 -19 -742 -54 -277 -158
-461 -395 -697 -206 -205 -405 -350 -672 -487 l-153 -79 -121 61 c-232 116
-423 246 -612 414 -238 211 -375 403 -447 624 -59 180 -61 205 -61 907 l0 640
78 29 c42 15 139 55 215 89 110 48 141 66 153 89 28 55 -14 116 -73 105 -16
-2 -82 -29 -148 -59 -66 -31 -164 -70 -219 -89 -112 -39 -150 -68 -159 -126
-11 -61 -8 -1103 3 -1259 15 -219 59 -391 145 -558 116 -227 363 -489 665
-706 192 -138 515 -310 582 -310 40 0 291 123 438 215 242 151 551 426 687
611 161 219 243 450 263 742 11 160 14 1203 3 1265 -8 49 -48 89 -104 106
-140 42 -393 157 -602 274 -227 128 -315 164 -477 192 -78 14 -315 19 -380 8z"/>
<path d="M2443 3346 c-23 -7 -57 -23 -76 -35 -50 -31 -126 -115 -148 -165 -21
-48 -38 -153 -39 -233 l0 -53 -39 0 c-45 0 -96 -31 -128 -78 -30 -46 -35 -113
-31 -447 3 -251 5 -294 20 -321 21 -39 71 -82 106 -92 35 -9 869 -9 904 0 35
10 85 53 106 92 15 27 17 70 20 321 4 334 -1 401 -31 447 -32 47 -83 78 -128
78 l-39 0 0 53 c-1 80 -18 185 -40 233 -27 62 -113 149 -178 181 -46 22 -72
28 -146 30 -57 2 -107 -2 -133 -11z m215 -155 c20 -11 49 -32 63 -48 49 -52
59 -85 59 -188 l0 -95 -220 0 -220 0 0 95 c0 75 4 104 19 133 22 42 62 82 106
105 43 23 146 22 193 -2z m322 -800 c0 -282 -2 -320 -16 -325 -20 -8 -788 -8
-808 0 -14 5 -16 43 -16 325 l0 319 420 0 420 0 0 -319z"/>
<path d="M2459 2662 c-80 -41 -113 -94 -117 -185 -4 -92 22 -148 90 -192 41
-26 47 -35 47 -65 2 -82 31 -129 81 -129 50 0 79 47 81 129 0 30 6 39 47 65
68 44 94 100 90 192 -4 92 -38 145 -117 186 -73 36 -131 36 -202 -1z m149
-142 c47 -44 15 -130 -48 -130 -38 0 -70 34 -70 75 0 41 32 75 70 75 14 0 36
-9 48 -20z"/>
<path d="M4133 2936 l-28 -24 -6 -314 c-5 -296 -7 -320 -33 -433 -47 -205
-128 -385 -244 -550 -67 -95 -341 -373 -462 -469 -192 -153 -495 -332 -722
-427 l-78 -32 -77 32 c-141 59 -380 187 -510 274 -162 109 -268 194 -410 330
-106 102 -115 108 -150 105 -46 -4 -79 -43 -69 -83 8 -30 164 -186 273 -273
l72 -57 0 -290 0 -290 -47 -30 c-68 -44 -94 -100 -90 -192 4 -91 37 -144 117
-185 71 -37 129 -37 202 0 79 40 113 93 117 185 4 92 -22 148 -90 192 l-47 30
0 229 -1 228 28 -18 c241 -159 599 -334 682 -334 72 0 380 145 603 284 297
184 617 476 790 718 81 114 168 287 209 415 l33 102 125 1 125 0 35 -47 c87
-117 245 -127 348 -22 30 30 62 108 62 149 0 41 -32 119 -62 149 -54 55 -101
74 -178 69 -82 -4 -138 -37 -178 -103 l-27 -44 -109 -1 -108 0 6 33 c6 31 25
297 26 365 l0 32 213 -1 212 0 30 -47 c44 -68 100 -94 192 -90 60 3 78 8 114
33 56 40 99 120 99 185 0 65 -43 145 -99 185 -36 25 -54 30 -114 33 -94 5
-147 -21 -197 -96 l-34 -52 -207 0 -206 0 -6 62 c-5 51 -10 67 -32 85 -33 29
-57 29 -92 -1z m817 -168 c43 -47 10 -118 -55 -118 -41 0 -75 32 -75 70 0 63
86 95 130 48z m-231 -584 c12 -15 21 -34 21 -44 0 -10 -9 -29 -21 -44 -41 -52
-129 -23 -129 44 0 67 88 96 129 44z m-2901 -1904 c14 -14 22 -33 22 -55 0
-65 -71 -98 -118 -55 -47 44 -15 130 48 130 14 0 36 -9 48 -20z"/>
</g>
</svg>
